<?xml version="1.0" encoding="iso-8859-1"?>
<!-- Generator: Adobe Illustrator 15.0.0, SVG Export Plug-In . SVG Version: 6.00 Build 0)  -->
<!DOCTYPE svg PUBLIC "-//W3C//DTD SVG 1.1//EN" "http://www.w3.org/Graphics/SVG/1.1/DTD/svg11.dtd">
<svg version="1.1" id="Layer_1" xmlns="http://www.w3.org/2000/svg" xmlns:xlink="http://www.w3.org/1999/xlink" x="0px" y="0px"
	 width="170px" height="186px" viewBox="0 0 170 186" style="enable-background:new 0 0 170 186;" xml:space="preserve">
<g>
	<g id="XMLID_3_">
		<g>
			<polygon style="fill:none;stroke:#000000;" points="124.041,71.388 123.82,115.713 85.461,93.103 85.461,49.115 85.682,48.986 
							"/>
			<polygon style="fill:#D97633;stroke:#000000;" points="162.18,49.526 162.357,49.22 162.622,49.373 162.18,138.213 
				161.517,138.594 160.952,137.6 123.82,115.713 124.041,71.388 124.127,71.314 			"/>
			<polygon style="fill:none;stroke:#000000;" points="85.154,137.784 46.881,115.431 46.881,115.075 85.375,93.176 85.461,93.103 
				123.82,115.713 123.82,115.812 85.24,137.833 			"/>
			<polygon style="fill:#FFFFFF;stroke:#000000;" points="162.357,49.22 162.18,49.526 124.127,71.314 124.041,71.388 
				85.682,48.986 85.461,49.115 85.461,48.913 85.818,4.642 85.898,4.642 			"/>
			<polygon style="fill:#D97633;stroke:#000000;" points="85.604,4.645 85.689,4.642 85.461,49.115 47.102,71.008 8.75,48.655 
				8.745,48.573 			"/>
			<polygon style="fill:none;stroke:#000000;" points="85.375,93.176 46.881,115.075 47.102,71.008 85.461,49.115 85.461,93.103 			
				"/>
			<polygon style="fill:#D97633;stroke:#000000;" points="85.123,182.245 85.02,182.249 8.301,137.446 8.301,137.159 
				46.881,115.075 85.154,137.784 			"/>
			<polygon style="fill:#FFFFFF;stroke:#000000;" points="47.102,71.046 46.881,115.113 8.301,137.167 8.745,48.711 8.822,48.711 
							"/>
			<polygon style="fill:#FFFFFF;stroke:#000000;" points="85.24,137.833 123.82,115.812 123.82,115.713 161.869,138.093 
				161.869,138.396 85.284,182.245 85.184,182.245 85.154,137.784 			"/>
		</g>
		<g style="display:none;">
			<polygon style="display:inline;fill:none;stroke:#000000;" points="162.357,49.22 162.622,49.373 162.18,138.213 
				161.517,138.594 85.449,182.004 85.02,182.249 8.301,137.446 8.301,137.017 8.743,48.655 8.743,48.606 85.768,4.649 
				85.902,4.569 			"/>
			<polygon style="display:inline;fill:none;stroke:#000000;" points="123.82,115.713 123.82,115.812 85.24,137.833 85.154,137.784 
				46.881,115.431 46.881,115.075 47.102,71.008 85.461,49.115 85.682,48.986 124.041,71.388 			"/>
			<polyline style="display:inline;fill:none;stroke:#000000;" points="85.768,48.299 85.768,4.649 85.768,4.416 			"/>
			<polyline style="display:inline;fill:none;stroke:#000000;" points="85.154,137.6 85.154,137.784 85.154,181.482 			"/>
			<line style="display:inline;fill:none;stroke:#000000;" x1="124.127" y1="71.314" x2="162.18" y2="49.526"/>
			<polyline style="display:inline;fill:none;stroke:#000000;" points="46.795,70.701 8.743,48.655 8.128,48.299 			"/>
			<polyline style="display:inline;fill:none;stroke:#000000;" points="85.461,93.103 123.82,115.713 160.952,137.6 			"/>
			<polyline style="display:inline;fill:none;stroke:#000000;" points="85.375,93.176 46.881,115.075 8.301,137.017 7.822,137.293 
							"/>
			<polyline style="display:inline;fill:none;stroke:#000000;" points="85.461,93.103 85.461,49.115 85.461,48.913 			"/>
		</g>
	</g>
</g>
</svg>
