<?xml version="1.0" encoding="iso-8859-1"?>
<!-- Generator: Adobe Illustrator 15.0.0, SVG Export Plug-In . SVG Version: 6.00 Build 0)  -->
<!DOCTYPE svg PUBLIC "-//W3C//DTD SVG 1.1//EN" "http://www.w3.org/Graphics/SVG/1.1/DTD/svg11.dtd">
<svg version="1.1" id="Layer_1" xmlns="http://www.w3.org/2000/svg" xmlns:xlink="http://www.w3.org/1999/xlink" x="0px" y="0px"
	 width="1000px" height="996.564px" viewBox="0 0 1000 996.564" style="enable-background:new 0 0 1000 996.564;"
	 xml:space="preserve">
<path style="fill:none;stroke:#000000;stroke-width:2.7118;stroke-miterlimit:10;" d="M28.125,642.717
	c0,0,91.705-254.777,245.464-258.86c153.754-4.086,308.556,262.606,425.411,259.505c116.857-3.107,272.405-287.278,272.405-287.278"
	/>
<path style="fill:none;stroke:#000000;stroke-width:2.7118;stroke-miterlimit:10;" d="M23.532,626.603
	c0,0,100.318-251.515,254.129-250.371c153.804,1.146,299.447,272.946,416.344,273.814C810.9,650.922,976.017,372.2,976.017,372.2"/>
<path style="fill:none;stroke:#000000;stroke-width:2.7118;stroke-miterlimit:10;" d="M19.497,610.338
	c0,0,108.809-247.958,262.486-241.583c153.687,6.371,290,282.967,406.797,287.812c116.796,4.84,291.3-268.103,291.3-268.103"/>
<path style="fill:none;stroke:#000000;stroke-width:2.7118;stroke-miterlimit:10;" d="M16.013,593.946
	c0,0,117.178-244.115,270.552-232.52C439.938,373.019,566.773,654.088,683.339,662.9c116.566,8.812,300.244-258.039,300.244-258.039
	"/>
<path style="fill:none;stroke:#000000;stroke-width:2.7118;stroke-miterlimit:10;" d="M13.094,577.446
	c0,0,125.405-239.992,278.293-223.186c152.895,16.798,270.102,302.016,386.301,314.792
	c116.194,12.764,308.841-247.688,308.841-247.688"/>
<path style="fill:none;stroke:#000000;stroke-width:2.7118;stroke-miterlimit:10;" d="M10.731,560.855
	c0,0,133.491-235.589,285.722-213.596c152.234,21.988,259.674,311.027,375.378,327.741
	c115.692,16.712,317.083-237.044,317.083-237.044"/>
<path style="fill:none;stroke:#000000;stroke-width:2.7118;stroke-miterlimit:10;" d="M8.937,544.197
	c0,0,141.426-230.917,292.821-203.763c151.396,27.152,248.955,319.679,364.013,340.316
	c115.062,20.63,324.956-226.128,324.956-226.128"/>
<path style="fill:none;stroke:#000000;stroke-width:2.7118;stroke-miterlimit:10;" d="M7.705,527.481
	c0,0,149.196-225.972,299.58-193.684c150.391,32.283,237.941,327.957,352.237,352.496c114.293,24.529,332.46-214.951,332.46-214.951
	"/>
<path style="fill:none;stroke:#000000;stroke-width:2.7118;stroke-miterlimit:10;" d="M7.052,510.739
	c0,0,156.789-220.771,305.988-183.39c149.2,37.377,226.653,335.856,340.044,364.264c113.392,28.405,339.576-203.52,339.576-203.52"
	/>
<path style="fill:none;stroke:#000000;stroke-width:2.7118;stroke-miterlimit:10;" d="M6.962,493.981
	c0,0,164.202-215.312,312.048-172.88c147.846,42.426,215.103,343.366,327.467,375.616
	c112.358,32.24,346.296-191.862,346.296-191.862"/>
<path style="fill:none;stroke:#000000;stroke-width:2.7118;stroke-miterlimit:10;" d="M7.442,477.231
	c0,0,171.426-209.607,317.744-162.171c146.318,47.429,203.309,350.484,314.507,386.529
	c111.199,36.045,352.624-179.973,352.624-179.973"/>
<path style="fill:none;stroke:#000000;stroke-width:2.7118;stroke-miterlimit:10;" d="M8.492,460.506
	c0,0,178.455-203.657,323.074-151.274c144.623,52.376,191.275,357.185,301.186,397.002
	c109.913,39.802,358.532-167.885,358.532-167.885"/>
<path style="fill:none;stroke:#000000;stroke-width:2.7118;stroke-miterlimit:10;" d="M10.112,443.829
	c0,0,185.272-197.473,328.031-140.206C480.9,360.887,517.164,667.108,625.657,710.635c108.491,43.516,364.033-155.6,364.033-155.6"
	/>
<path style="fill:none;stroke:#000000;stroke-width:2.7118;stroke-miterlimit:10;" d="M12.293,427.216
	c0,0,191.88-191.061,332.607-128.976c140.728,62.087,166.56,369.367,273.511,416.553C725.363,761.97,987.527,571.66,987.527,571.66"
	/>
<path style="fill:none;stroke:#000000;stroke-width:2.7118;stroke-miterlimit:10;" d="M15.042,410.685
	c0,0,198.263-184.427,336.799-117.592c138.533,66.834,153.905,374.813,259.192,425.608
	c105.286,50.791,373.764-130.498,373.764-130.498"/>
<path style="fill:none;stroke:#000000;stroke-width:2.7118;stroke-miterlimit:10;" d="M18.351,394.256
	c0,0,204.42-177.579,340.602-106.069c136.184,71.501,141.073,379.828,244.574,434.171C707.02,776.695,981.51,604.645,981.51,604.645
	"/>
<path style="fill:none;stroke:#000000;stroke-width:2.7118;stroke-miterlimit:10;" d="M22.211,377.949
	c0,0,210.345-170.524,344.015-94.427c133.673,76.089,128.079,384.402,229.677,442.237
	c101.584,57.823,381.767-104.803,381.767-104.803"/>
<path style="fill:none;stroke:#000000;stroke-width:2.7118;stroke-miterlimit:10;" d="M26.63,361.788
	c0,0,216.016-163.277,347.022-82.683c131.014,80.591,114.937,388.539,214.501,449.79c99.566,61.245,385.117-91.758,385.117-91.758"
	/>
<path style="fill:none;stroke:#000000;stroke-width:2.7118;stroke-miterlimit:10;" d="M31.592,345.781
	c0,0,221.443-155.837,349.635-70.833c128.194,84.997,101.661,392.22,199.09,456.822c97.422,64.594,388.009-78.614,388.009-78.614"/>
<path style="fill:none;stroke:#000000;stroke-width:2.7118;stroke-miterlimit:10;" d="M37.097,329.953
	c0,0,226.61-148.219,351.841-58.906c125.231,89.306,88.271,395.453,183.446,463.329c95.166,67.867,390.454-65.382,390.454-65.382"/>
<path style="fill:none;stroke:#000000;stroke-width:2.7118;stroke-miterlimit:10;" d="M43.135,314.322
	c0,0,231.522-140.431,353.649-46.91c122.114,93.514,74.765,398.224,167.574,469.297c92.814,71.061,392.456-52.07,392.456-52.07"/>
<path style="fill:none;stroke:#000000;stroke-width:2.7118;stroke-miterlimit:10;" d="M49.701,298.905
	c0,0,236.166-132.475,355.035-34.861c118.874,97.61,61.189,400.539,151.534,474.722c90.339,74.18,393.999-38.688,393.999-38.688"/>
<path style="fill:none;stroke:#000000;stroke-width:2.7118;stroke-miterlimit:10;" d="M56.791,283.72
	c0,0,240.531-124.371,356.013-22.769c115.487,101.596,47.54,402.382,135.306,479.597c87.765,77.211,395.088-25.276,395.088-25.276"
	/>
<path style="fill:none;stroke:#000000;stroke-width:2.7118;stroke-miterlimit:10;" d="M64.39,268.785
	c0,0,244.622-116.121,356.583-10.651c111.966,105.461,33.824,403.768,118.925,483.918c85.092,80.151,395.716-11.825,395.716-11.825"
	/>
<path style="fill:none;stroke:#000000;stroke-width:2.7118;stroke-miterlimit:10;" d="M72.499,254.118
	c0,0,248.422-107.737,356.734,1.478c108.312,109.209,20.082,404.682,102.399,487.685c82.316,82.992,395.894,1.629,395.894,1.629"/>
<path style="fill:none;stroke:#000000;stroke-width:2.7118;stroke-miterlimit:10;" d="M81.094,239.735
	c0,0,251.941-99.23,356.478,13.602c104.543,112.828,6.312,405.132,85.766,490.886c79.447,85.743,395.604,15.089,395.604,15.089"/>
<path style="fill:none;stroke:#000000;stroke-width:2.7118;stroke-miterlimit:10;" d="M90.179,225.65
	c0,0,255.171-90.605,355.805,25.716c100.644,116.319-7.464,405.111,69.028,493.52c76.483,88.394,394.862,28.524,394.862,28.524"/>
<path style="fill:none;stroke:#000000;stroke-width:2.7118;stroke-miterlimit:10;" d="M99.729,211.886
	c0,0,258.104-81.88,354.732,37.796c96.632,119.672-21.229,404.625,52.207,495.579c73.434,90.945,393.665,41.933,393.665,41.933"/>
<path style="fill:none;stroke:#000000;stroke-width:2.7118;stroke-miterlimit:10;" d="M109.749,198.45
	c0,0,260.739-73.057,353.239,49.835c92.513,122.888-34.971,403.672,35.331,497.068c70.3,93.387,392.009,55.295,392.009,55.295"/>
<path style="fill:none;stroke:#000000;stroke-width:2.7118;stroke-miterlimit:10;" d="M120.22,185.366
	c0,0,263.068-64.147,351.339,61.815c88.271,125.962-48.681,402.248,18.409,497.98c67.086,95.725,389.902,68.594,389.902,68.594"/>
<path style="fill:none;stroke:#000000;stroke-width:2.7118;stroke-miterlimit:10;" d="M131.125,172.645
	c0,0,265.099-55.171,349.038,73.723c83.938,128.891-62.328,400.361,1.465,498.315c63.794,97.953,387.352,81.812,387.352,81.812"/>
<path style="fill:none;stroke:#000000;stroke-width:2.7118;stroke-miterlimit:10;" d="M142.457,160.301
	c0,0,266.827-46.124,346.329,85.547c79.509,131.671-75.9,398.009-15.471,498.081c60.426,100.061,384.344,94.928,384.344,94.928"/>
<path style="fill:none;stroke:#000000;stroke-width:2.7118;stroke-miterlimit:10;" d="M154.204,148.35
	c0,0,268.241-37.024,343.222,97.271c74.986,134.298-89.389,395.203-32.397,497.268c56.989,102.06,380.889,107.941,380.889,107.941"
	/>
<path style="fill:none;stroke:#000000;stroke-width:2.7118;stroke-miterlimit:10;" d="M166.352,136.806
	c0,0,269.338-27.885,339.711,108.885c70.378,136.768-102.774,391.932-49.286,495.88c53.489,103.936,377.005,120.826,377.005,120.826
	"/>
<path style="fill:none;stroke:#000000;stroke-width:2.7118;stroke-miterlimit:10;" d="M178.883,125.68
	c0,0,270.13-18.71,335.816,120.372c65.687,139.082-116.04,388.214-66.115,493.915c49.919,105.693,372.673,133.577,372.673,133.577"
	/>
<path style="fill:none;stroke:#000000;stroke-width:2.7118;stroke-miterlimit:10;" d="M191.781,114.986
	c0,0,270.616-9.517,331.536,131.719c60.918,141.236-129.174,384.047-82.87,491.386c46.295,107.328,367.922,146.165,367.922,146.165"
	/>
<path style="fill:none;stroke:#000000;stroke-width:2.7118;stroke-miterlimit:10;" d="M205.04,104.74
	c0,0,270.782-0.311,326.867,142.915c56.083,143.222-142.152,379.425-99.528,488.277c42.619,108.847,362.737,158.597,362.737,158.597
	"/>
<path style="fill:none;stroke:#000000;stroke-width:2.7118;stroke-miterlimit:10;" d="M218.643,94.948
	c0,0,270.632,8.894,321.813,153.943c51.183,145.048-154.968,374.38-116.067,484.613c38.896,110.23,357.134,170.84,357.134,170.84"/>
<path style="fill:none;stroke:#000000;stroke-width:2.7118;stroke-miterlimit:10;" d="M232.568,85.627
	c0,0,270.174,18.086,316.391,164.794C595.18,397.123,381.353,619.31,416.48,730.809c35.131,111.49,351.121,182.873,351.121,182.873"
	/>
<path style="fill:none;stroke:#000000;stroke-width:2.7118;stroke-miterlimit:10;" d="M246.801,76.783
	c0,0,269.404,27.263,310.607,175.454s-180.05,362.981-148.733,475.61c31.313,112.617,344.7,194.701,344.7,194.701"/>
<path style="fill:none;stroke:#000000;stroke-width:2.7118;stroke-miterlimit:10;" d="M261.327,68.426
	c0,0,268.323,36.408,304.465,185.917c36.141,149.506-192.292,356.649-164.816,470.27c27.467,113.62,337.877,206.317,337.877,206.317
	"/>
<path style="fill:none;stroke:#000000;stroke-width:2.7118;stroke-miterlimit:10;" d="M276.126,60.571
	c0,0,266.93,45.507,297.968,196.158c31.038,150.646-204.3,349.907-180.709,464.399C416.977,835.614,724.052,938.81,724.052,938.81"
	/>
<path style="fill:none;stroke:#000000;stroke-width:2.7118;stroke-miterlimit:10;" d="M291.186,53.22
	c0,0,265.228,54.557,291.129,206.176c25.896,151.615-216.083,342.762-196.397,457.989c19.686,115.22,323.08,228.799,323.08,228.799"
	/>
<path style="fill:none;stroke:#000000;stroke-width:2.7118;stroke-miterlimit:10;" d="M306.486,46.388
	c0,0,263.223,63.543,283.95,215.953c20.727,152.41-227.608,335.217-211.851,451.047c15.761,115.826,315.113,239.653,315.113,239.653
	"/>
<path style="fill:none;stroke:#000000;stroke-width:2.7118;stroke-miterlimit:10;" d="M322.011,40.079
	c0,0,260.907,72.455,276.447,225.482c15.533,153.026-238.875,327.282-227.069,443.583
	C383.2,825.437,678.177,959.367,678.177,959.367"/>
<path style="fill:none;stroke:#000000;stroke-width:2.7118;stroke-miterlimit:10;" d="M337.738,34.301
	c0,0,258.295,81.281,268.624,234.752C616.684,422.518,356.5,588.024,364.345,704.657c7.857,116.631,298.1,260.51,298.1,260.51"/>
<path style="fill:none;stroke:#000000;stroke-width:2.7118;stroke-miterlimit:10;" d="M353.659,29.064
	c0,0,255.383,90.017,260.484,243.747c5.105,153.725-260.565,310.291-256.686,427.123c3.884,116.829,289.073,270.496,289.073,270.496
	"/>
<path style="fill:none;stroke:#000000;stroke-width:2.7118;stroke-miterlimit:10;" d="M369.746,24.368
	c0,0,252.171,98.647,252.047,252.464c-0.132,153.81-270.962,301.252-271.058,418.15c-0.089,116.894,279.711,280.163,279.711,280.163
	"/>
<path style="fill:none;stroke:#000000;stroke-width:2.7118;stroke-miterlimit:10;" d="M385.983,20.222
	c0,0,248.672,107.164,243.315,260.887c-5.358,153.717-281.044,291.868-285.112,408.697
	c-4.069,116.818,270.022,289.509,270.022,289.509"/>
<path style="fill:none;stroke:#000000;stroke-width:2.7118;stroke-miterlimit:10;" d="M402.353,16.632
	c0,0,244.884,115.556,234.307,269.008c-10.585,153.445-290.808,282.144-298.847,398.769
	C329.779,801.022,597.84,982.927,597.84,982.927"/>
<path style="fill:none;stroke:#000000;stroke-width:2.7118;stroke-miterlimit:10;" d="M418.832,13.6
	c0,0,240.818,123.814,225.029,276.817c-15.799,152.997-300.237,272.094-312.237,388.376
	c-11.992,116.272,249.728,307.193,249.728,307.193"/>
<path style="fill:none;stroke:#000000;stroke-width:2.7118;stroke-miterlimit:10;" d="M435.405,11.129
	c0,0,236.464,131.931,215.485,284.308C629.905,447.81,341.585,557.172,325.635,672.978
	c-15.937,115.796,239.139,315.499,239.139,315.499"/>
<path style="fill:none;stroke:#000000;stroke-width:2.7118;stroke-miterlimit:10;" d="M452.052,9.225
	c0,0,231.848,139.894,205.701,291.469c-26.162,151.569-318.03,251.063-337.908,366.264
	c-19.863,115.188,228.274,323.449,228.274,323.449"/>
<path style="fill:none;stroke:#000000;stroke-width:2.7118;stroke-miterlimit:10;" d="M468.759,7.886
	c0,0,226.952,147.696,195.664,298.295C633.13,456.773,338.043,546.289,314.266,660.744
	c-23.771,114.448,217.146,331.026,217.146,331.026"/>
<path style="fill:none;stroke:#000000;stroke-width:2.7118;stroke-miterlimit:10;" d="M485.496,7.117
	c0,0,221.801,155.325,185.413,304.772C634.514,461.331,336.554,540.76,308.902,654.346
	C281.252,767.913,514.665,992.56,514.665,992.56"/>
<path style="fill:none;stroke:#000000;stroke-width:2.7118;stroke-miterlimit:10;" d="M502.254,6.916
	c0,0,216.392,162.778,174.941,310.901c-41.454,148.121-341.939,217.373-373.441,329.952
	c-31.492,112.563,194.145,345.011,194.145,345.011"/>
<path style="fill:none;stroke:#000000;stroke-width:2.7118;stroke-miterlimit:10;" d="M519.005,7.285
	c0,0,210.735,170.041,164.273,316.667C636.81,470.58,334.147,529.581,298.831,641.016
	c-35.298,111.437,182.31,351.414,182.31,351.414"/>
<path style="fill:none;stroke:#000000;stroke-width:2.7118;stroke-miterlimit:10;" d="M535.737,8.225
	c0,0,204.832,177.106,153.408,322.072c-51.421,144.959-355.915,193.634-395,303.804
	c-39.069,110.166,170.259,357.414,170.259,357.414"/>
<path style="fill:none;stroke:#000000;stroke-width:2.7118;stroke-miterlimit:10;" d="M552.426,9.731
	c0,0,198.69,183.969,142.375,327.101c-56.32,143.128-362.297,181.418-405.102,290.206
	c-42.794,108.774,158.006,362.994,158.006,362.994"/>
<path style="fill:none;stroke:#000000;stroke-width:2.7118;stroke-miterlimit:10;" d="M569.057,11.806
	c0,0,192.324,190.617,131.172,331.753C639.07,484.686,331.97,512.561,285.493,619.823C239.03,727.08,431.065,987.98,431.065,987.98"
	/>
<path style="fill:none;stroke:#000000;stroke-width:2.7118;stroke-miterlimit:10;" d="M585.603,14.445
	c0,0,185.731,197.043,119.82,336.021c-65.924,138.967-373.794,156.385-423.889,262.005
	c-50.087,105.612,132.972,372.889,132.972,372.889"/>
<path style="fill:none;stroke:#000000;stroke-width:2.7118;stroke-miterlimit:10;" d="M602.054,17.644
	c0,0,178.926,203.244,108.324,339.899c-70.605,136.646-378.893,143.584-432.549,247.441
	C224.18,708.84,398.044,982.178,398.044,982.178"/>
<path style="fill:none;stroke:#000000;stroke-width:2.7118;stroke-miterlimit:10;" d="M618.386,21.399
	c0,0,171.911,209.21,96.706,343.384c-75.211,134.168-383.559,130.625-440.708,232.598
	c-57.15,101.967,107.318,381.064,107.318,381.064"/>
<path style="fill:none;stroke:#000000;stroke-width:2.7118;stroke-miterlimit:10;" d="M634.577,25.711
	c0,0,164.705,214.931,84.977,346.472C639.825,503.718,331.78,489.689,271.189,589.661c-60.58,99.962,94.307,384.489,94.307,384.489"
	/>
<path style="fill:none;stroke:#000000;stroke-width:2.7118;stroke-miterlimit:10;" d="M650.616,30.567
	c0,0,157.298,220.41,73.151,349.164c-84.156,128.745-391.549,104.254-455.505,202.108c-63.941,97.849,81.188,387.477,81.188,387.477
	"/>
<path style="fill:none;stroke:#000000;stroke-width:2.7118;stroke-miterlimit:10;" d="M666.477,35.968
	c0,0,149.718,225.628,61.238,351.448c-88.479,125.81-394.865,90.883-462.108,186.507c-67.231,95.611,67.962,390.01,67.962,390.01"/>
<path style="fill:none;stroke:#000000;stroke-width:2.7118;stroke-miterlimit:10;" d="M682.149,41.901
	c0,0,141.959,230.59,49.256,353.328c-92.713,122.734-397.729,77.406-468.184,170.688c-70.447,93.273,54.66,392.098,54.66,392.098"/>
</svg>
